<svg width="120" height="120" viewBox="0 0 120 120" fill="none" xmlns="http://www.w3.org/2000/svg">
<g clip-path="url(#clip0_8_11)">
<rect x="1.01556" y="0.866501" width="118" height="118" rx="10" transform="rotate(0.146652 1.01556 0.866501)" fill="#171923"/>
<path d="M92.0879 10.6078C149.5 -14.1308 159.522 48.6212 172.907 102.917C180.357 133.138 182.708 167.796 180.787 181.608C122.031 206.363 48.8129 178.393 11.6702 155.9C-60.0108 112.492 -26.5993 83.7778 17.4279 83.0108C31.5683 82.7644 64.2828 92.4065 90.2901 103.822C70.8033 72.078 57.4304 25.5416 92.0879 10.6078Z" fill="#582460"/>
<path d="M31.0147 42.061C32.8275 42.061 34.4202 42.4624 35.7927 43.2652C37.1653 44.0421 38.24 45.1298 39.0169 46.5282C39.7938 47.9008 40.1822 49.4805 40.1822 51.2674C40.1822 53.0542 39.7938 54.6469 39.0169 56.0453C38.24 57.4438 37.1653 58.5444 35.7927 59.3472C34.4202 60.1241 32.8275 60.5125 31.0147 60.5125C29.2538 60.5125 27.674 60.1241 26.2756 59.3472C24.9031 58.5444 23.8284 57.4438 23.0515 56.0453C22.2746 54.6469 21.8861 53.0542 21.8861 51.2674C21.8861 49.4805 22.2746 47.9008 23.0515 46.5282C23.8284 45.1298 24.9031 44.0421 26.2756 43.2652C27.6482 42.4624 29.2279 42.061 31.0147 42.061ZM31.0536 45.5571C29.9918 45.5571 29.0466 45.8031 28.2179 46.2952C27.4151 46.7613 26.7806 47.4217 26.3145 48.2763C25.8483 49.1309 25.6152 50.1279 25.6152 51.2674C25.6152 52.3809 25.8483 53.378 26.3145 54.2585C26.7806 55.113 27.4151 55.7864 28.2179 56.2784C29.0466 56.7704 29.9918 57.0165 31.0536 57.0165C32.1154 57.0165 33.0476 56.7704 33.8505 56.2784C34.6792 55.7864 35.3136 55.113 35.7539 54.2585C36.22 53.378 36.4531 52.3809 36.4531 51.2674C36.4531 50.1279 36.22 49.1309 35.7539 48.2763C35.3136 47.4217 34.6792 46.7613 33.8505 46.2952C33.0476 45.8031 32.1154 45.5571 31.0536 45.5571ZM38.9003 56.2396L29.8882 71.2727C29.4221 71.9978 28.8265 72.3604 28.1013 72.3604C27.5834 72.3604 27.1302 72.205 26.7418 71.8942C26.3792 71.5835 26.1461 71.195 26.0425 70.7289C25.9649 70.2368 26.0684 69.7707 26.3533 69.3304L31.8693 60.1629L38.9003 56.2396ZM53.586 42.061C55.3988 42.061 56.9914 42.4624 58.364 43.2652C59.7365 44.0421 60.8112 45.1298 61.5881 46.5282C62.365 47.9008 62.7535 49.4805 62.7535 51.2674C62.7535 53.0542 62.365 54.6469 61.5881 56.0453C60.8112 57.4438 59.7365 58.5444 58.364 59.3472C56.9914 60.1241 55.3988 60.5125 53.586 60.5125C51.825 60.5125 50.2453 60.1241 48.8469 59.3472C47.4743 58.5444 46.3996 57.4438 45.6227 56.0453C44.8458 54.6469 44.4573 53.0542 44.4573 51.2674C44.4573 49.4805 44.8458 47.9008 45.6227 46.5282C46.3996 45.1298 47.4743 44.0421 48.8469 43.2652C50.2194 42.4624 51.7991 42.061 53.586 42.061ZM53.6248 45.5571C52.5631 45.5571 51.6178 45.8031 50.7891 46.2952C49.9863 46.7613 49.3518 47.4217 48.8857 48.2763C48.4196 49.1309 48.1865 50.1279 48.1865 51.2674C48.1865 52.3809 48.4196 53.378 48.8857 54.2585C49.3518 55.113 49.9863 55.7864 50.7891 56.2784C51.6178 56.7704 52.5631 57.0165 53.6248 57.0165C54.6866 57.0165 55.6189 56.7704 56.4217 56.2784C57.2504 55.7864 57.8849 55.113 58.3251 54.2585C58.7913 53.378 59.0243 52.3809 59.0243 51.2674C59.0243 50.1279 58.7913 49.1309 58.3251 48.2763C57.8849 47.4217 57.2504 46.7613 56.4217 46.2952C55.6189 45.8031 54.6866 45.5571 53.6248 45.5571ZM61.4716 56.2396L52.4595 71.2727C51.9933 71.9978 51.3977 72.3604 50.6726 72.3604C50.1547 72.3604 49.7015 72.205 49.313 71.8942C48.9504 71.5835 48.7174 71.195 48.6138 70.7289C48.5361 70.2368 48.6397 69.7707 48.9246 69.3304L54.4406 60.1629L61.4716 56.2396ZM71.7677 72.438C71.198 72.438 70.7189 72.2438 70.3304 71.8554C69.9679 71.4669 69.7866 71.0008 69.7866 70.4569C69.7866 69.9131 69.942 69.4729 70.2527 69.1362L90.6854 42.8768C90.9184 42.6178 91.1645 42.4236 91.4234 42.2941C91.7083 42.1646 91.9932 42.0999 92.278 42.0999C92.8478 42.0999 93.3268 42.2941 93.7153 42.6826C94.1038 43.071 94.298 43.5371 94.298 44.081C94.298 44.5212 94.1555 44.9226 93.8707 45.2852L73.2438 71.8165C72.8554 72.2309 72.3633 72.438 71.7677 72.438ZM74.0984 57.5991C72.6741 57.5991 71.3663 57.2495 70.1751 56.5503C69.0097 55.8252 68.0774 54.88 67.3782 53.7146C66.679 52.5493 66.3294 51.2674 66.3294 49.8689C66.3294 48.4705 66.679 47.1886 67.3782 46.0232C68.0774 44.832 69.0097 43.8868 70.1751 43.1875C71.3663 42.4624 72.6741 42.0999 74.0984 42.0999C75.5228 42.0999 76.8176 42.4624 77.983 43.1875C79.1483 43.8868 80.0806 44.832 80.7798 46.0232C81.479 47.1886 81.8286 48.4705 81.8286 49.8689C81.8286 51.2674 81.479 52.5493 80.7798 53.7146C80.0806 54.88 79.1483 55.8252 77.983 56.5503C76.8176 57.2495 75.5228 57.5991 74.0984 57.5991ZM74.0984 53.6369C74.7976 53.6369 75.4321 53.4686 76.0018 53.1319C76.5716 52.7953 77.0248 52.3421 77.3614 51.7724C77.6981 51.1767 77.8664 50.5423 77.8664 49.8689C77.8664 49.1697 77.6851 48.5352 77.3226 47.9655C76.9859 47.3958 76.5327 46.9426 75.963 46.6059C75.3933 46.2434 74.7717 46.0621 74.0984 46.0621C73.3992 46.0621 72.7518 46.2434 72.1562 46.6059C71.5864 46.9426 71.1332 47.3958 70.7966 47.9655C70.4599 48.5352 70.2916 49.1697 70.2916 49.8689C70.2916 50.5423 70.4599 51.1767 70.7966 51.7724C71.1332 52.3421 71.5864 52.7953 72.1562 53.1319C72.7518 53.4686 73.3992 53.6369 74.0984 53.6369ZM89.8696 72.438C88.4712 72.438 87.1763 72.0884 85.9851 71.3892C84.8197 70.69 83.8874 69.7577 83.1882 68.5924C82.489 67.4011 82.1394 66.1063 82.1394 64.7078C82.1394 63.2835 82.489 61.9887 83.1882 60.8233C83.8874 59.6579 84.8197 58.7257 85.9851 58.0264C87.1504 57.3272 88.4453 56.9776 89.8696 56.9776C91.268 56.9776 92.5499 57.3272 93.7153 58.0264C94.9066 58.6998 95.8518 59.6191 96.551 60.7845C97.2761 61.9498 97.6387 63.2576 97.6387 64.7078C97.6387 66.1322 97.2761 67.427 96.551 68.5924C95.8518 69.7577 94.9195 70.69 93.7541 71.3892C92.5888 72.0884 91.2939 72.438 89.8696 72.438ZM89.8696 68.4758C90.5688 68.4758 91.2033 68.3075 91.773 67.9708C92.3687 67.6342 92.8348 67.181 93.1715 66.6113C93.5081 66.0156 93.6765 65.3812 93.6765 64.7078C93.6765 64.0086 93.5081 63.3741 93.1715 62.8044C92.8348 62.2347 92.3687 61.7815 91.773 61.4448C91.2033 61.1082 90.5688 60.9398 89.8696 60.9398C89.1963 60.9398 88.5618 61.1082 87.9662 61.4448C87.3965 61.7815 86.9433 62.2347 86.6066 62.8044C86.27 63.3741 86.1016 64.0086 86.1016 64.7078C86.1016 65.3812 86.27 66.0156 86.6066 66.6113C86.9433 67.181 87.3965 67.6342 87.9662 67.9708C88.5618 68.3075 89.1963 68.4758 89.8696 68.4758Z" fill="white"/>
</g>
<defs>
<clipPath id="clip0_8_11">
<rect x="1.01556" y="0.866501" width="118" height="118" rx="10" transform="rotate(0.146652 1.01556 0.866501)" fill="white"/>
</clipPath>
</defs>
</svg>
