<svg width="169" height="86" viewBox="0 0 169 86" fill="none" xmlns="http://www.w3.org/2000/svg">
<path d="M30.644 51.5916C29.6069 60.9257 24.9547 83.861 16.4206 83.1498C5.75304 82.2609 2.64166 56.0364 2.64166 41.3685C2.64166 26.7006 5.75303 7.14338 11.0868 3.14304C16.4206 -0.857297 35.9778 15.1441 23.0878 44.4799C8.06835 78.6622 8.41993 31.5899 19.0875 28.4785C29.7551 25.3672 56.9448 27.6057 60.9451 25.3833C64.9455 23.1609 65.4265 18.1491 72.0572 12.9378C80.5405 6.27059 96.4656 0.0316706 124.468 9.81028C152.47 19.5889 166.249 28.4785 166.249 41.3685C166.249 54.2585 130.018 72.5162 109.356 75.5936C88.4649 78.705 72.4635 73.8157 64.4628 57.8144C63.4257 55.1475 64.4628 51.5916 52.4618 51.5916C47.3706 51.5916 40.8671 50.5545 30.644 51.5916Z" stroke="#34384B" stroke-width="4"/>
</svg>
